<svg width="154" height="11" viewBox="0 0 154 11" fill="none" xmlns="http://www.w3.org/2000/svg">
<path d="M4.17 8.18C3.63 8.18 3.13333 8.08667 2.68 7.9C2.23333 7.71333 1.84333 7.45667 1.51 7.13C1.18333 6.79667 0.926667 6.40333 0.74 5.95C0.56 5.49 0.47 4.99333 0.47 4.46C0.47 3.92667 0.56 3.43333 0.74 2.98C0.926667 2.52 1.18333 2.12667 1.51 1.8C1.84333 1.46667 2.23333 1.20667 2.68 1.02C3.13333 0.833333 3.63 0.74 4.17 0.74C4.71 0.74 5.20333 0.833333 5.65 1.02C6.10333 1.20667 6.49333 1.46667 6.82 1.8C7.15333 2.12667 7.41 2.52 7.59 2.98C7.77667 3.43333 7.87 3.92667 7.87 4.46C7.87 4.99333 7.77667 5.49 7.59 5.95C7.41 6.40333 7.15333 6.79667 6.82 7.13C6.49333 7.45667 6.10333 7.71333 5.65 7.9C5.20333 8.08667 4.71 8.18 4.17 8.18ZM4.17 7.4C4.58333 7.4 4.96 7.32333 5.3 7.17C5.64667 7.01667 5.94333 6.80667 6.19 6.54C6.43667 6.27333 6.62667 5.96333 6.76 5.61C6.9 5.25 6.97 4.86667 6.97 4.46C6.97 4.05333 6.9 3.67333 6.76 3.32C6.62667 2.96 6.43667 2.64667 6.19 2.38C5.94333 2.11333 5.64667 1.90333 5.3 1.75C4.96 1.59667 4.58333 1.52 4.17 1.52C3.75667 1.52 3.37667 1.59667 3.03 1.75C2.69 1.90333 2.39667 2.11333 2.15 2.38C1.90333 2.64667 1.71 2.96 1.57 3.32C1.43667 3.67333 1.37 4.05333 1.37 4.46C1.37 4.86667 1.43667 5.25 1.57 5.61C1.71 5.96333 1.90333 6.27333 2.15 6.54C2.39667 6.80667 2.69 7.01667 3.03 7.17C3.37667 7.32333 3.75667 7.4 4.17 7.4ZM49.2449 0.44H50.0249V4H50.0449C50.2583 3.74667 50.5049 3.55 50.7849 3.41C51.0716 3.27 51.3849 3.2 51.7249 3.2C52.0916 3.2 52.4249 3.26333 52.7249 3.39C53.0316 3.51 53.2916 3.68 53.5049 3.9C53.7183 4.12 53.8849 4.38 54.0049 4.68C54.1249 4.98 54.1849 5.30667 54.1849 5.66C54.1849 6.01333 54.1249 6.34 54.0049 6.64C53.8849 6.94 53.7183 7.2 53.5049 7.42C53.2983 7.64 53.0516 7.81333 52.7649 7.94C52.4783 8.06 52.1716 8.12 51.8449 8.12C51.4249 8.12 51.0549 8.03 50.7349 7.85C50.4216 7.66333 50.1916 7.43667 50.0449 7.17H50.0249V8H49.2449V0.44ZM50.0249 5.66C50.0249 5.90667 50.0616 6.13667 50.1349 6.35C50.2149 6.55667 50.3283 6.74 50.4749 6.9C50.6216 7.05333 50.7949 7.17667 50.9949 7.27C51.2016 7.35667 51.4316 7.4 51.6849 7.4C51.9383 7.4 52.1649 7.35667 52.3649 7.27C52.5716 7.17667 52.7483 7.05333 52.8949 6.9C53.0416 6.74 53.1516 6.55667 53.2249 6.35C53.3049 6.13667 53.3449 5.90667 53.3449 5.66C53.3449 5.41333 53.3049 5.18667 53.2249 4.98C53.1516 4.76667 53.0416 4.58333 52.8949 4.43C52.7483 4.27 52.5716 4.14667 52.3649 4.06C52.1649 3.96667 51.9383 3.92 51.6849 3.92C51.4316 3.92 51.2016 3.96667 50.9949 4.06C50.7949 4.14667 50.6216 4.27 50.4749 4.43C50.3283 4.58333 50.2149 4.76667 50.1349 4.98C50.0616 5.18667 50.0249 5.41333 50.0249 5.66ZM105.084 0.92H105.874L108.884 8H107.904L107.184 6.26H103.644L102.914 8H101.964L105.084 0.92ZM105.464 2H105.444L103.974 5.48H106.864L105.464 2Z" fill="#FF0000"/>
<path d="M9.03984 3.32H9.81984V4H9.83984C10.0532 3.74667 10.2998 3.55 10.5798 3.41C10.8665 3.27 11.1798 3.2 11.5198 3.2C11.8865 3.2 12.2198 3.26333 12.5198 3.39C12.8265 3.51 13.0865 3.68 13.2998 3.9C13.5132 4.12 13.6798 4.38 13.7998 4.68C13.9198 4.98 13.9798 5.30667 13.9798 5.66C13.9798 6.01333 13.9198 6.34 13.7998 6.64C13.6798 6.94 13.5132 7.2 13.2998 7.42C13.0932 7.64 12.8465 7.81333 12.5598 7.94C12.2732 8.06 11.9665 8.12 11.6398 8.12C11.2198 8.12 10.8498 8.03 10.5298 7.85C10.2165 7.66333 9.98651 7.43667 9.83984 7.17H9.81984V10.28H9.03984V3.32ZM9.81984 5.66C9.81984 5.90667 9.85651 6.13667 9.92984 6.35C10.0098 6.55667 10.1232 6.74 10.2698 6.9C10.4165 7.05333 10.5898 7.17667 10.7898 7.27C10.9965 7.35667 11.2265 7.4 11.4798 7.4C11.7332 7.4 11.9598 7.35667 12.1598 7.27C12.3665 7.17667 12.5432 7.05333 12.6898 6.9C12.8365 6.74 12.9465 6.55667 13.0198 6.35C13.0998 6.13667 13.1398 5.90667 13.1398 5.66C13.1398 5.41333 13.0998 5.18667 13.0198 4.98C12.9465 4.76667 12.8365 4.58333 12.6898 4.43C12.5432 4.27 12.3665 4.14667 12.1598 4.06C11.9598 3.96667 11.7332 3.92 11.4798 3.92C11.2265 3.92 10.9965 3.96667 10.7898 4.06C10.5898 4.14667 10.4165 4.27 10.2698 4.43C10.1232 4.58333 10.0098 4.76667 9.92984 4.98C9.85651 5.18667 9.81984 5.41333 9.81984 5.66ZM19.3731 7.15C19.0931 7.51 18.7865 7.76333 18.4531 7.91C18.1198 8.05 17.7331 8.12 17.2931 8.12C16.9265 8.12 16.5965 8.05667 16.3031 7.93C16.0098 7.79667 15.7598 7.62 15.5531 7.4C15.3531 7.18 15.1965 6.92 15.0831 6.62C14.9765 6.32 14.9231 6 14.9231 5.66C14.9231 5.3 14.9831 4.97 15.1031 4.67C15.2231 4.36333 15.3898 4.10333 15.6031 3.89C15.8165 3.67 16.0698 3.5 16.3631 3.38C16.6565 3.26 16.9765 3.2 17.3231 3.2C17.6498 3.2 17.9498 3.25667 18.2231 3.37C18.4965 3.47667 18.7298 3.63667 18.9231 3.85C19.1231 4.05667 19.2765 4.31333 19.3831 4.62C19.4898 4.92 19.5431 5.26333 19.5431 5.65V5.9H15.7631C15.7765 6.1 15.8231 6.29333 15.9031 6.48C15.9898 6.66 16.0998 6.82 16.2331 6.96C16.3665 7.09333 16.5231 7.2 16.7031 7.28C16.8831 7.36 17.0798 7.4 17.2931 7.4C17.6331 7.4 17.9198 7.34 18.1531 7.22C18.3865 7.1 18.5965 6.92333 18.7831 6.69L19.3731 7.15ZM18.7031 5.24C18.6898 4.84 18.5598 4.52 18.3131 4.28C18.0665 4.04 17.7265 3.92 17.2931 3.92C16.8598 3.92 16.5098 4.04 16.2431 4.28C15.9765 4.52 15.8165 4.84 15.7631 5.24H18.7031ZM20.7498 4.43C20.7498 4.21667 20.7431 4.01667 20.7298 3.83C20.7164 3.64333 20.7098 3.47333 20.7098 3.32H21.4498C21.4498 3.44667 21.4531 3.57333 21.4598 3.7C21.4664 3.82667 21.4698 3.95667 21.4698 4.09H21.4898C21.5431 3.97667 21.6164 3.86667 21.7098 3.76C21.8098 3.65333 21.9264 3.56 22.0598 3.48C22.1931 3.39333 22.3431 3.32667 22.5098 3.28C22.6764 3.22667 22.8564 3.2 23.0498 3.2C23.3564 3.2 23.6198 3.24667 23.8398 3.34C24.0664 3.43333 24.2531 3.56333 24.3998 3.73C24.5464 3.89667 24.6531 4.1 24.7198 4.34C24.7931 4.57333 24.8298 4.83 24.8298 5.11V8H24.0498V5.19C24.0498 4.79667 23.9631 4.48667 23.7898 4.26C23.6164 4.03333 23.3464 3.92 22.9798 3.92C22.7264 3.92 22.5064 3.96333 22.3198 4.05C22.1398 4.13667 21.9898 4.26 21.8698 4.42C21.7564 4.58 21.6698 4.77 21.6098 4.99C21.5564 5.21 21.5298 5.45333 21.5298 5.72V8H20.7498V4.43ZM26.2664 0.44H27.0464V4H27.0664C27.2797 3.74667 27.5264 3.55 27.8064 3.41C28.0931 3.27 28.4064 3.2 28.7464 3.2C29.1131 3.2 29.4464 3.26333 29.7464 3.39C30.0531 3.51 30.3131 3.68 30.5264 3.9C30.7397 4.12 30.9064 4.38 31.0264 4.68C31.1464 4.98 31.2064 5.30667 31.2064 5.66C31.2064 6.01333 31.1464 6.34 31.0264 6.64C30.9064 6.94 30.7397 7.2 30.5264 7.42C30.3197 7.64 30.0731 7.81333 29.7864 7.94C29.4997 8.06 29.1931 8.12 28.8664 8.12C28.4464 8.12 28.0764 8.03 27.7564 7.85C27.4431 7.66333 27.2131 7.43667 27.0664 7.17H27.0464V8H26.2664V0.44ZM27.0464 5.66C27.0464 5.90667 27.0831 6.13667 27.1564 6.35C27.2364 6.55667 27.3497 6.74 27.4964 6.9C27.6431 7.05333 27.8164 7.17667 28.0164 7.27C28.2231 7.35667 28.4531 7.4 28.7064 7.4C28.9597 7.4 29.1864 7.35667 29.3864 7.27C29.5931 7.17667 29.7697 7.05333 29.9164 6.9C30.0631 6.74 30.1731 6.55667 30.2464 6.35C30.3264 6.13667 30.3664 5.90667 30.3664 5.66C30.3664 5.41333 30.3264 5.18667 30.2464 4.98C30.1731 4.76667 30.0631 4.58333 29.9164 4.43C29.7697 4.27 29.5931 4.14667 29.3864 4.06C29.1864 3.96667 28.9597 3.92 28.7064 3.92C28.4531 3.92 28.2231 3.96667 28.0164 4.06C27.8164 4.14667 27.6431 4.27 27.4964 4.43C27.3497 4.58333 27.2364 4.76667 27.1564 4.98C27.0831 5.18667 27.0464 5.41333 27.0464 5.66ZM32.3597 3.92C32.5997 3.67333 32.883 3.49333 33.2097 3.38C33.543 3.26 33.8797 3.2 34.2197 3.2C34.913 3.2 35.413 3.36333 35.7197 3.69C36.0264 4.01667 36.1797 4.51333 36.1797 5.18V7.19C36.1797 7.32333 36.1864 7.46333 36.1997 7.61C36.213 7.75 36.2297 7.88 36.2497 8H35.4997C35.473 7.89333 35.4564 7.77667 35.4497 7.65C35.4497 7.51667 35.4497 7.4 35.4497 7.3H35.4297C35.2764 7.54 35.0697 7.73667 34.8097 7.89C34.5564 8.04333 34.2497 8.12 33.8897 8.12C33.6497 8.12 33.423 8.09 33.2097 8.03C33.003 7.97 32.8197 7.88333 32.6597 7.77C32.5064 7.65 32.383 7.50333 32.2897 7.33C32.1964 7.15667 32.1497 6.95667 32.1497 6.73C32.1497 6.34333 32.2497 6.04 32.4497 5.82C32.6497 5.6 32.8964 5.43667 33.1897 5.33C33.4897 5.22333 33.8097 5.15667 34.1497 5.13C34.4964 5.10333 34.813 5.09 35.0997 5.09H35.3997V4.95C35.3997 4.61 35.2964 4.35333 35.0897 4.18C34.8897 4.00667 34.6064 3.92 34.2397 3.92C33.9864 3.92 33.7364 3.96333 33.4897 4.05C33.2497 4.13 33.0364 4.25667 32.8497 4.43L32.3597 3.92ZM34.6197 5.75C34.1197 5.75 33.723 5.82 33.4297 5.96C33.1364 6.1 32.9897 6.33 32.9897 6.65C32.9897 6.94333 33.0864 7.15333 33.2797 7.28C33.4797 7.4 33.7264 7.46 34.0197 7.46C34.2464 7.46 34.443 7.42333 34.6097 7.35C34.783 7.27 34.9264 7.16667 35.0397 7.04C35.153 6.91333 35.2397 6.76667 35.2997 6.6C35.3597 6.42667 35.393 6.24333 35.3997 6.05V5.75H34.6197ZM37.6052 4.43C37.6052 4.21667 37.5986 4.01667 37.5852 3.83C37.5719 3.64333 37.5652 3.47333 37.5652 3.32H38.3052C38.3052 3.44667 38.3086 3.57333 38.3152 3.7C38.3219 3.82667 38.3252 3.95667 38.3252 4.09H38.3452C38.3986 3.97667 38.4719 3.86667 38.5652 3.76C38.6652 3.65333 38.7819 3.56 38.9152 3.48C39.0486 3.39333 39.1986 3.32667 39.3652 3.28C39.5319 3.22667 39.7119 3.2 39.9052 3.2C39.9586 3.2 40.0119 3.20333 40.0652 3.21C40.1186 3.21667 40.1719 3.23 40.2252 3.25L40.1752 4.04C40.0419 4 39.9019 3.98 39.7552 3.98C39.2752 3.98 38.9252 4.13667 38.7052 4.45C38.4919 4.75667 38.3852 5.18 38.3852 5.72V8H37.6052V4.43ZM45.1251 7.15C44.8451 7.51 44.5384 7.76333 44.2051 7.91C43.8717 8.05 43.4851 8.12 43.0451 8.12C42.6784 8.12 42.3484 8.05667 42.0551 7.93C41.7617 7.79667 41.5117 7.62 41.3051 7.4C41.1051 7.18 40.9484 6.92 40.8351 6.62C40.7284 6.32 40.6751 6 40.6751 5.66C40.6751 5.3 40.7351 4.97 40.8551 4.67C40.9751 4.36333 41.1417 4.10333 41.3551 3.89C41.5684 3.67 41.8217 3.5 42.1151 3.38C42.4084 3.26 42.7284 3.2 43.0751 3.2C43.4017 3.2 43.7017 3.25667 43.9751 3.37C44.2484 3.47667 44.4817 3.63667 44.6751 3.85C44.8751 4.05667 45.0284 4.31333 45.1351 4.62C45.2417 4.92 45.2951 5.26333 45.2951 5.65V5.9H41.5151C41.5284 6.1 41.5751 6.29333 41.6551 6.48C41.7417 6.66 41.8517 6.82 41.9851 6.96C42.1184 7.09333 42.2751 7.2 42.4551 7.28C42.6351 7.36 42.8317 7.4 43.0451 7.4C43.3851 7.4 43.6717 7.34 43.9051 7.22C44.1384 7.1 44.3484 6.92333 44.5351 6.69L45.1251 7.15ZM44.4551 5.24C44.4417 4.84 44.3117 4.52 44.0651 4.28C43.8184 4.04 43.4784 3.92 43.0451 3.92C42.6117 3.92 42.2617 4.04 41.9951 4.28C41.7284 4.52 41.5684 4.84 41.5151 5.24H44.4551ZM55.4682 3.32H56.2482V8H55.4682V3.32ZM55.2882 1.49C55.2882 1.33667 55.3415 1.20333 55.4482 1.09C55.5615 0.976666 55.6982 0.92 55.8582 0.92C56.0182 0.92 56.1515 0.976666 56.2582 1.09C56.3715 1.20333 56.4282 1.33667 56.4282 1.49C56.4282 1.65667 56.3749 1.79333 56.2682 1.9C56.1615 2.00667 56.0249 2.06 55.8582 2.06C55.6915 2.06 55.5549 2.00667 55.4482 1.9C55.3415 1.79333 55.2882 1.65667 55.2882 1.49ZM57.7605 0.44H58.5405V4H58.5605C58.7739 3.74667 59.0205 3.55 59.3005 3.41C59.5872 3.27 59.9005 3.2 60.2405 3.2C60.6072 3.2 60.9405 3.26333 61.2405 3.39C61.5472 3.51 61.8072 3.68 62.0205 3.9C62.2339 4.12 62.4005 4.38 62.5205 4.68C62.6405 4.98 62.7005 5.30667 62.7005 5.66C62.7005 6.01333 62.6405 6.34 62.5205 6.64C62.4005 6.94 62.2339 7.2 62.0205 7.42C61.8139 7.64 61.5672 7.81333 61.2805 7.94C60.9939 8.06 60.6872 8.12 60.3605 8.12C59.9405 8.12 59.5705 8.03 59.2505 7.85C58.9372 7.66333 58.7072 7.43667 58.5605 7.17H58.5405V8H57.7605V0.44ZM58.5405 5.66C58.5405 5.90667 58.5772 6.13667 58.6505 6.35C58.7305 6.55667 58.8439 6.74 58.9905 6.9C59.1372 7.05333 59.3105 7.17667 59.5105 7.27C59.7172 7.35667 59.9472 7.4 60.2005 7.4C60.4539 7.4 60.6805 7.35667 60.8805 7.27C61.0872 7.17667 61.2639 7.05333 61.4105 6.9C61.5572 6.74 61.6672 6.55667 61.7405 6.35C61.8205 6.13667 61.8605 5.90667 61.8605 5.66C61.8605 5.41333 61.8205 5.18667 61.7405 4.98C61.6672 4.76667 61.5572 4.58333 61.4105 4.43C61.2639 4.27 61.0872 4.14667 60.8805 4.06C60.6805 3.96667 60.4539 3.92 60.2005 3.92C59.9472 3.92 59.7172 3.96667 59.5105 4.06C59.3105 4.14667 59.1372 4.27 58.9905 4.43C58.8439 4.58333 58.7305 4.76667 58.6505 4.98C58.5772 5.18667 58.5405 5.41333 58.5405 5.66ZM63.9838 0.44H64.7638V8H63.9838V0.44ZM66.3959 3.32H67.1759V8H66.3959V3.32ZM66.2159 1.49C66.2159 1.33667 66.2693 1.20333 66.3759 1.09C66.4893 0.976666 66.6259 0.92 66.7859 0.92C66.9459 0.92 67.0793 0.976666 67.1859 1.09C67.2993 1.20333 67.3559 1.33667 67.3559 1.49C67.3559 1.65667 67.3026 1.79333 67.1959 1.9C67.0893 2.00667 66.9526 2.06 66.7859 2.06C66.6193 2.06 66.4826 2.00667 66.3759 1.9C66.2693 1.79333 66.2159 1.65667 66.2159 1.49ZM68.4583 5.66C68.4583 5.29333 68.5216 4.96 68.6483 4.66C68.7749 4.36 68.9483 4.10333 69.1683 3.89C69.3883 3.67 69.6516 3.5 69.9583 3.38C70.2649 3.26 70.5983 3.2 70.9583 3.2C71.3183 3.2 71.6516 3.26 71.9583 3.38C72.2649 3.5 72.5283 3.67 72.7483 3.89C72.9683 4.10333 73.1416 4.36 73.2683 4.66C73.3949 4.96 73.4583 5.29333 73.4583 5.66C73.4583 6.02667 73.3949 6.36 73.2683 6.66C73.1416 6.96 72.9683 7.22 72.7483 7.44C72.5283 7.65333 72.2649 7.82 71.9583 7.94C71.6516 8.06 71.3183 8.12 70.9583 8.12C70.5983 8.12 70.2649 8.06 69.9583 7.94C69.6516 7.82 69.3883 7.65333 69.1683 7.44C68.9483 7.22 68.7749 6.96 68.6483 6.66C68.5216 6.36 68.4583 6.02667 68.4583 5.66ZM69.2983 5.66C69.2983 5.90667 69.3349 6.13667 69.4083 6.35C69.4883 6.55667 69.6016 6.74 69.7483 6.9C69.8949 7.05333 70.0683 7.17667 70.2683 7.27C70.4749 7.35667 70.7049 7.4 70.9583 7.4C71.2116 7.4 71.4383 7.35667 71.6383 7.27C71.8449 7.17667 72.0216 7.05333 72.1683 6.9C72.3149 6.74 72.4249 6.55667 72.4983 6.35C72.5783 6.13667 72.6183 5.90667 72.6183 5.66C72.6183 5.41333 72.5783 5.18667 72.4983 4.98C72.4249 4.76667 72.3149 4.58333 72.1683 4.43C72.0216 4.27 71.8449 4.14667 71.6383 4.06C71.4383 3.96667 71.2116 3.92 70.9583 3.92C70.7049 3.92 70.4749 3.96667 70.2683 4.06C70.0683 4.14667 69.8949 4.27 69.7483 4.43C69.6016 4.58333 69.4883 4.76667 69.4083 4.98C69.3349 5.18667 69.2983 5.41333 69.2983 5.66ZM77.2258 3.98H75.8458V6.32C75.8458 6.47333 75.8491 6.61667 75.8558 6.75C75.8624 6.87667 75.8891 6.99 75.9358 7.09C75.9824 7.18333 76.0524 7.26 76.1458 7.32C76.2391 7.37333 76.3724 7.4 76.5458 7.4C76.6591 7.4 76.7758 7.38667 76.8958 7.36C77.0158 7.33333 77.1291 7.29333 77.2358 7.24L77.2658 7.95C77.1324 8.01 76.9824 8.05333 76.8158 8.08C76.6558 8.10667 76.5024 8.12 76.3558 8.12C76.0758 8.12 75.8524 8.08333 75.6858 8.01C75.5191 7.93667 75.3891 7.83333 75.2958 7.7C75.2024 7.56667 75.1391 7.40333 75.1058 7.21C75.0791 7.01 75.0658 6.79 75.0658 6.55V3.98H74.0458V3.32H75.0658V1.99H75.8458V3.32H77.2258V3.98ZM78.1912 0.44H78.9712V3.97H78.9912C79.0445 3.87667 79.1178 3.78667 79.2112 3.7C79.3045 3.60667 79.4145 3.52333 79.5412 3.45C79.6745 3.37667 79.8212 3.31667 79.9812 3.27C80.1412 3.22333 80.3112 3.2 80.4912 3.2C80.7978 3.2 81.0612 3.24667 81.2812 3.34C81.5078 3.43333 81.6945 3.56333 81.8412 3.73C81.9878 3.89667 82.0945 4.1 82.1612 4.34C82.2345 4.57333 82.2712 4.83 82.2712 5.11V8H81.4912V5.19C81.4912 4.79667 81.4045 4.48667 81.2312 4.26C81.0578 4.03333 80.7878 3.92 80.4212 3.92C80.1678 3.92 79.9478 3.96333 79.7612 4.05C79.5812 4.13667 79.4312 4.26 79.3112 4.42C79.1978 4.58 79.1112 4.77 79.0512 4.99C78.9978 5.21 78.9712 5.45333 78.9712 5.72V8H78.1912V0.44ZM87.9278 7.15C87.6478 7.51 87.3411 7.76333 87.0078 7.91C86.6745 8.05 86.2878 8.12 85.8478 8.12C85.4811 8.12 85.1511 8.05667 84.8578 7.93C84.5645 7.79667 84.3145 7.62 84.1078 7.4C83.9078 7.18 83.7511 6.92 83.6378 6.62C83.5311 6.32 83.4778 6 83.4778 5.66C83.4778 5.3 83.5378 4.97 83.6578 4.67C83.7778 4.36333 83.9445 4.10333 84.1578 3.89C84.3711 3.67 84.6245 3.5 84.9178 3.38C85.2111 3.26 85.5311 3.2 85.8778 3.2C86.2045 3.2 86.5045 3.25667 86.7778 3.37C87.0511 3.47667 87.2845 3.63667 87.4778 3.85C87.6778 4.05667 87.8311 4.31333 87.9378 4.62C88.0445 4.92 88.0978 5.26333 88.0978 5.65V5.9H84.3178C84.3311 6.1 84.3778 6.29333 84.4578 6.48C84.5445 6.66 84.6545 6.82 84.7878 6.96C84.9211 7.09333 85.0778 7.2 85.2578 7.28C85.4378 7.36 85.6345 7.4 85.8478 7.4C86.1878 7.4 86.4745 7.34 86.7078 7.22C86.9411 7.1 87.1511 6.92333 87.3378 6.69L87.9278 7.15ZM87.2578 5.24C87.2445 4.84 87.1145 4.52 86.8678 4.28C86.6211 4.04 86.2811 3.92 85.8478 3.92C85.4145 3.92 85.0645 4.04 84.7978 4.28C84.5311 4.52 84.3711 4.84 84.3178 5.24H87.2578ZM93.4845 7.15C93.2045 7.51 92.8978 7.76333 92.5645 7.91C92.2311 8.05 91.8445 8.12 91.4045 8.12C91.0378 8.12 90.7078 8.05667 90.4145 7.93C90.1211 7.79667 89.8711 7.62 89.6645 7.4C89.4645 7.18 89.3078 6.92 89.1945 6.62C89.0878 6.32 89.0345 6 89.0345 5.66C89.0345 5.3 89.0945 4.97 89.2145 4.67C89.3345 4.36333 89.5011 4.10333 89.7145 3.89C89.9278 3.67 90.1811 3.5 90.4745 3.38C90.7678 3.26 91.0878 3.2 91.4345 3.2C91.7611 3.2 92.0611 3.25667 92.3345 3.37C92.6078 3.47667 92.8411 3.63667 93.0345 3.85C93.2345 4.05667 93.3878 4.31333 93.4945 4.62C93.6011 4.92 93.6545 5.26333 93.6545 5.65V5.9H89.8745C89.8878 6.1 89.9345 6.29333 90.0145 6.48C90.1011 6.66 90.2111 6.82 90.3445 6.96C90.4778 7.09333 90.6345 7.2 90.8145 7.28C90.9945 7.36 91.1911 7.4 91.4045 7.4C91.7445 7.4 92.0311 7.34 92.2645 7.22C92.4978 7.1 92.7078 6.92333 92.8945 6.69L93.4845 7.15ZM92.8145 5.24C92.8011 4.84 92.6711 4.52 92.4245 4.28C92.1778 4.04 91.8378 3.92 91.4045 3.92C90.9711 3.92 90.6211 4.04 90.3545 4.28C90.0878 4.52 89.9278 4.84 89.8745 5.24H92.8145ZM94.8611 0.44H95.6411V5.38L97.7711 3.32H98.8811L96.6211 5.45L99.1111 8H97.9611L95.6411 5.54V8H94.8611V0.44ZM109.685 4.43C109.685 4.21667 109.679 4.01667 109.665 3.83C109.652 3.64333 109.645 3.47333 109.645 3.32H110.385C110.385 3.44667 110.389 3.57333 110.395 3.7C110.402 3.82667 110.405 3.95667 110.405 4.09H110.425C110.479 3.97667 110.552 3.86667 110.645 3.76C110.745 3.65333 110.862 3.56 110.995 3.48C111.129 3.39333 111.279 3.32667 111.445 3.28C111.612 3.22667 111.792 3.2 111.985 3.2C112.239 3.2 112.449 3.23333 112.615 3.3C112.789 3.36 112.932 3.43667 113.045 3.53C113.159 3.61667 113.245 3.71333 113.305 3.82C113.372 3.92 113.425 4.01 113.465 4.09C113.639 3.81 113.839 3.59333 114.065 3.44C114.292 3.28 114.585 3.2 114.945 3.2C115.279 3.2 115.559 3.24667 115.785 3.34C116.012 3.42667 116.195 3.55667 116.335 3.73C116.475 3.89667 116.575 4.10333 116.635 4.35C116.695 4.59 116.725 4.86 116.725 5.16V8H115.945V5.2C115.945 5.04 115.929 4.88333 115.895 4.73C115.862 4.57667 115.802 4.44 115.715 4.32C115.629 4.2 115.512 4.10333 115.365 4.03C115.219 3.95667 115.032 3.92 114.805 3.92C114.639 3.92 114.482 3.95333 114.335 4.02C114.189 4.08667 114.059 4.18 113.945 4.3C113.839 4.42 113.752 4.56667 113.685 4.74C113.625 4.90667 113.595 5.09333 113.595 5.3V8H112.815V5.35C112.815 4.83 112.745 4.46333 112.605 4.25C112.465 4.03 112.235 3.92 111.915 3.92C111.662 3.92 111.442 3.96333 111.255 4.05C111.075 4.13667 110.925 4.26 110.805 4.42C110.692 4.58 110.605 4.77 110.545 4.99C110.492 5.21 110.465 5.45333 110.465 5.72V8H109.685V4.43ZM118.301 6.77C118.454 6.96333 118.621 7.11667 118.801 7.23C118.988 7.34333 119.221 7.4 119.501 7.4C119.621 7.4 119.741 7.38667 119.861 7.36C119.988 7.33333 120.101 7.29 120.201 7.23C120.301 7.17 120.381 7.09667 120.441 7.01C120.501 6.91667 120.531 6.80667 120.531 6.68C120.531 6.55333 120.501 6.45 120.441 6.37C120.388 6.29 120.314 6.22333 120.221 6.17C120.128 6.11 120.021 6.06333 119.901 6.03C119.781 5.99667 119.658 5.96667 119.531 5.94C119.311 5.89333 119.101 5.84 118.901 5.78C118.701 5.72 118.524 5.64333 118.371 5.55C118.224 5.45 118.104 5.32333 118.011 5.17C117.924 5.01667 117.881 4.82 117.881 4.58C117.881 4.35333 117.931 4.15333 118.031 3.98C118.131 3.80667 118.264 3.66333 118.431 3.55C118.598 3.43667 118.784 3.35 118.991 3.29C119.198 3.23 119.411 3.2 119.631 3.2C119.964 3.2 120.271 3.26667 120.551 3.4C120.838 3.53333 121.061 3.75 121.221 4.05L120.571 4.48C120.471 4.31333 120.338 4.18 120.171 4.08C120.011 3.97333 119.814 3.92 119.581 3.92C119.474 3.92 119.364 3.93333 119.251 3.96C119.144 3.98667 119.048 4.02667 118.961 4.08C118.874 4.13333 118.801 4.20333 118.741 4.29C118.688 4.37 118.661 4.46333 118.661 4.57C118.661 4.67 118.691 4.75667 118.751 4.83C118.818 4.89667 118.904 4.95667 119.011 5.01C119.124 5.06333 119.251 5.11 119.391 5.15C119.538 5.19 119.688 5.22333 119.841 5.25C120.048 5.29 120.244 5.34333 120.431 5.41C120.618 5.47 120.781 5.55333 120.921 5.66C121.061 5.76667 121.171 5.9 121.251 6.06C121.331 6.22 121.371 6.41667 121.371 6.65C121.371 6.91667 121.318 7.14333 121.211 7.33C121.104 7.51667 120.961 7.67 120.781 7.79C120.608 7.90333 120.408 7.98667 120.181 8.04C119.961 8.09333 119.734 8.12 119.501 8.12C119.101 8.12 118.754 8.06 118.461 7.94C118.174 7.81333 117.914 7.58333 117.681 7.25L118.301 6.77ZM125.019 3.98H123.639V6.32C123.639 6.47333 123.642 6.61667 123.649 6.75C123.655 6.87667 123.682 6.99 123.729 7.09C123.775 7.18333 123.845 7.26 123.939 7.32C124.032 7.37333 124.165 7.4 124.339 7.4C124.452 7.4 124.569 7.38667 124.689 7.36C124.809 7.33333 124.922 7.29333 125.029 7.24L125.059 7.95C124.925 8.01 124.775 8.05333 124.609 8.08C124.449 8.10667 124.295 8.12 124.149 8.12C123.869 8.12 123.645 8.08333 123.479 8.01C123.312 7.93667 123.182 7.83333 123.089 7.7C122.995 7.56667 122.932 7.40333 122.899 7.21C122.872 7.01 122.859 6.79 122.859 6.55V3.98H121.839V3.32H122.859V1.99H123.639V3.32H125.019V3.98ZM130.154 7.15C129.874 7.51 129.568 7.76333 129.234 7.91C128.901 8.05 128.514 8.12 128.074 8.12C127.708 8.12 127.378 8.05667 127.084 7.93C126.791 7.79667 126.541 7.62 126.334 7.4C126.134 7.18 125.978 6.92 125.864 6.62C125.758 6.32 125.704 6 125.704 5.66C125.704 5.3 125.764 4.97 125.884 4.67C126.004 4.36333 126.171 4.10333 126.384 3.89C126.598 3.67 126.851 3.5 127.144 3.38C127.438 3.26 127.758 3.2 128.104 3.2C128.431 3.2 128.731 3.25667 129.004 3.37C129.278 3.47667 129.511 3.63667 129.704 3.85C129.904 4.05667 130.058 4.31333 130.164 4.62C130.271 4.92 130.324 5.26333 130.324 5.65V5.9H126.544C126.558 6.1 126.604 6.29333 126.684 6.48C126.771 6.66 126.881 6.82 127.014 6.96C127.148 7.09333 127.304 7.2 127.484 7.28C127.664 7.36 127.861 7.4 128.074 7.4C128.414 7.4 128.701 7.34 128.934 7.22C129.168 7.1 129.378 6.92333 129.564 6.69L130.154 7.15ZM129.484 5.24C129.471 4.84 129.341 4.52 129.094 4.28C128.848 4.04 128.508 3.92 128.074 3.92C127.641 3.92 127.291 4.04 127.024 4.28C126.758 4.52 126.598 4.84 126.544 5.24H129.484ZM131.531 4.43C131.531 4.21667 131.524 4.01667 131.511 3.83C131.498 3.64333 131.491 3.47333 131.491 3.32H132.231C132.231 3.44667 132.234 3.57333 132.241 3.7C132.248 3.82667 132.251 3.95667 132.251 4.09H132.271C132.324 3.97667 132.398 3.86667 132.491 3.76C132.591 3.65333 132.708 3.56 132.841 3.48C132.974 3.39333 133.124 3.32667 133.291 3.28C133.458 3.22667 133.638 3.2 133.831 3.2C133.884 3.2 133.938 3.20333 133.991 3.21C134.044 3.21667 134.098 3.23 134.151 3.25L134.101 4.04C133.968 4 133.828 3.98 133.681 3.98C133.201 3.98 132.851 4.13667 132.631 4.45C132.418 4.75667 132.311 5.18 132.311 5.72V8H131.531V4.43ZM138.761 7.17H138.741C138.594 7.43667 138.361 7.66333 138.041 7.85C137.728 8.03 137.361 8.12 136.941 8.12C136.614 8.12 136.308 8.06 136.021 7.94C135.734 7.81333 135.484 7.64 135.271 7.42C135.064 7.2 134.901 6.94 134.781 6.64C134.661 6.34 134.601 6.01333 134.601 5.66C134.601 5.30667 134.661 4.98 134.781 4.68C134.901 4.38 135.068 4.12 135.281 3.9C135.494 3.68 135.751 3.51 136.051 3.39C136.358 3.26333 136.694 3.2 137.061 3.2C137.401 3.2 137.711 3.27 137.991 3.41C138.278 3.55 138.528 3.74667 138.741 4H138.761V0.44H139.541V8H138.761V7.17ZM138.761 5.66C138.761 5.41333 138.721 5.18667 138.641 4.98C138.568 4.76667 138.458 4.58333 138.311 4.43C138.164 4.27 137.988 4.14667 137.781 4.06C137.581 3.96667 137.354 3.92 137.101 3.92C136.848 3.92 136.618 3.96667 136.411 4.06C136.211 4.14667 136.038 4.27 135.891 4.43C135.744 4.58333 135.631 4.76667 135.551 4.98C135.478 5.18667 135.441 5.41333 135.441 5.66C135.441 5.90667 135.478 6.13667 135.551 6.35C135.631 6.55667 135.744 6.74 135.891 6.9C136.038 7.05333 136.211 7.17667 136.411 7.27C136.618 7.35667 136.848 7.4 137.101 7.4C137.354 7.4 137.581 7.35667 137.781 7.27C137.988 7.17667 138.164 7.05333 138.311 6.9C138.458 6.74 138.568 6.55667 138.641 6.35C138.721 6.13667 138.761 5.90667 138.761 5.66ZM140.924 3.92C141.164 3.67333 141.447 3.49333 141.774 3.38C142.107 3.26 142.444 3.2 142.784 3.2C143.477 3.2 143.977 3.36333 144.284 3.69C144.591 4.01667 144.744 4.51333 144.744 5.18V7.19C144.744 7.32333 144.751 7.46333 144.764 7.61C144.777 7.75 144.794 7.88 144.814 8H144.064C144.037 7.89333 144.021 7.77667 144.014 7.65C144.014 7.51667 144.014 7.4 144.014 7.3H143.994C143.841 7.54 143.634 7.73667 143.374 7.89C143.121 8.04333 142.814 8.12 142.454 8.12C142.214 8.12 141.987 8.09 141.774 8.03C141.567 7.97 141.384 7.88333 141.224 7.77C141.071 7.65 140.947 7.50333 140.854 7.33C140.761 7.15667 140.714 6.95667 140.714 6.73C140.714 6.34333 140.814 6.04 141.014 5.82C141.214 5.6 141.461 5.43667 141.754 5.33C142.054 5.22333 142.374 5.15667 142.714 5.13C143.061 5.10333 143.377 5.09 143.664 5.09H143.964V4.95C143.964 4.61 143.861 4.35333 143.654 4.18C143.454 4.00667 143.171 3.92 142.804 3.92C142.551 3.92 142.301 3.96333 142.054 4.05C141.814 4.13 141.601 4.25667 141.414 4.43L140.924 3.92ZM143.184 5.75C142.684 5.75 142.287 5.82 141.994 5.96C141.701 6.1 141.554 6.33 141.554 6.65C141.554 6.94333 141.651 7.15333 141.844 7.28C142.044 7.4 142.291 7.46 142.584 7.46C142.811 7.46 143.007 7.42333 143.174 7.35C143.347 7.27 143.491 7.16667 143.604 7.04C143.717 6.91333 143.804 6.76667 143.864 6.6C143.924 6.42667 143.957 6.24333 143.964 6.05V5.75H143.184ZM146.17 4.43C146.17 4.21667 146.163 4.01667 146.15 3.83C146.136 3.64333 146.13 3.47333 146.13 3.32H146.87C146.87 3.44667 146.873 3.57333 146.88 3.7C146.886 3.82667 146.89 3.95667 146.89 4.09H146.91C146.963 3.97667 147.036 3.86667 147.13 3.76C147.23 3.65333 147.346 3.56 147.48 3.48C147.613 3.39333 147.763 3.32667 147.93 3.28C148.096 3.22667 148.276 3.2 148.47 3.2C148.723 3.2 148.933 3.23333 149.1 3.3C149.273 3.36 149.416 3.43667 149.53 3.53C149.643 3.61667 149.73 3.71333 149.79 3.82C149.856 3.92 149.91 4.01 149.95 4.09C150.123 3.81 150.323 3.59333 150.55 3.44C150.776 3.28 151.07 3.2 151.43 3.2C151.763 3.2 152.043 3.24667 152.27 3.34C152.496 3.42667 152.68 3.55667 152.82 3.73C152.96 3.89667 153.06 4.10333 153.12 4.35C153.18 4.59 153.21 4.86 153.21 5.16V8H152.43V5.2C152.43 5.04 152.413 4.88333 152.38 4.73C152.346 4.57667 152.286 4.44 152.2 4.32C152.113 4.2 151.996 4.10333 151.85 4.03C151.703 3.95667 151.516 3.92 151.29 3.92C151.123 3.92 150.966 3.95333 150.82 4.02C150.673 4.08667 150.543 4.18 150.43 4.3C150.323 4.42 150.236 4.56667 150.17 4.74C150.11 4.90667 150.08 5.09333 150.08 5.3V8H149.3V5.35C149.3 4.83 149.23 4.46333 149.09 4.25C148.95 4.03 148.72 3.92 148.4 3.92C148.146 3.92 147.926 3.96333 147.74 4.05C147.56 4.13667 147.41 4.26 147.29 4.42C147.176 4.58 147.09 4.77 147.03 4.99C146.976 5.21 146.95 5.45333 146.95 5.72V8H146.17V4.43Z" fill="#1E1E1E"/>
</svg>
